<svg data-v-423bf9ae="" xmlns="http://www.w3.org/2000/svg" height="24px" viewBox="0 0 696.9560878272679 60" width="256px" class="font"><!----><!----><!----><g data-v-423bf9ae="" id="2e87a034-98d8-4beb-b679-3f7926cc111c" fill="black" transform="matrix(6.12870278179688,0,0,6.12870278179688,-6.925440312882301,-6.557712417195205)"><path d="M9.17 1.65L9.17 2.63L9.17 2.63Q8.90 2.50 8.55 2.35L8.55 2.35L8.55 2.35Q8.20 2.21 7.76 2.09L7.76 2.09L7.76 2.09Q7.31 1.98 6.75 1.90L6.75 1.90L6.75 1.90Q6.19 1.82 5.50 1.82L5.50 1.82L5.50 1.82Q4.68 1.82 4.03 1.91L4.03 1.91L4.03 1.91Q3.38 2.01 2.94 2.21L2.94 2.21L2.94 2.21Q2.49 2.41 2.25 2.72L2.25 2.72L2.25 2.72Q2.02 3.03 2.02 3.45L2.02 3.45L2.02 3.45Q2.02 3.81 2.24 4.07L2.24 4.07L2.24 4.07Q2.46 4.34 2.84 4.55L2.84 4.55L2.84 4.55Q3.22 4.75 3.73 4.92L3.73 4.92L3.73 4.92Q4.24 5.09 4.81 5.23L4.81 5.23L4.81 5.23Q5.38 5.38 5.98 5.53L5.98 5.53L5.98 5.53Q6.59 5.68 7.16 5.85L7.16 5.85L7.16 5.85Q7.73 6.03 8.24 6.24L8.24 6.24L8.24 6.24Q8.75 6.46 9.13 6.75L9.13 6.75L9.13 6.75Q9.51 7.03 9.73 7.40L9.73 7.40L9.73 7.40Q9.95 7.77 9.95 8.26L9.95 8.26L9.95 8.26Q9.95 8.78 9.75 9.18L9.75 9.18L9.75 9.18Q9.56 9.57 9.22 9.85L9.22 9.85L9.22 9.85Q8.88 10.14 8.43 10.33L8.43 10.33L8.43 10.33Q7.97 10.51 7.45 10.62L7.45 10.62L7.45 10.62Q6.94 10.73 6.39 10.78L6.39 10.78L6.39 10.78Q5.84 10.82 5.30 10.82L5.30 10.82L5.30 10.82Q4.08 10.82 3.09 10.64L3.09 10.64L3.09 10.64Q2.09 10.47 1.19 10.16L1.19 10.16L1.19 9.11L1.19 9.11Q2.12 9.67 3.15 9.87L3.15 9.87L3.15 9.87Q4.19 10.08 5.33 10.08L5.33 10.08L5.33 10.08Q6.14 10.08 6.82 9.98L6.82 9.98L6.82 9.98Q7.51 9.88 8.00 9.68L8.00 9.68L8.00 9.68Q8.50 9.47 8.78 9.13L8.78 9.13L8.78 9.13Q9.06 8.80 9.06 8.31L9.06 8.31L9.06 8.31Q9.06 7.92 8.84 7.63L8.84 7.63L8.84 7.63Q8.61 7.33 8.23 7.11L8.23 7.11L8.23 7.11Q7.85 6.89 7.35 6.72L7.35 6.72L7.35 6.72Q6.84 6.55 6.27 6.40L6.27 6.40L6.27 6.40Q5.70 6.25 5.10 6.11L5.10 6.11L5.10 6.11Q4.49 5.97 3.92 5.81L3.92 5.81L3.92 5.81Q3.36 5.65 2.85 5.44L2.85 5.44L2.85 5.44Q2.34 5.24 1.96 4.96L1.96 4.96L1.96 4.96Q1.58 4.68 1.36 4.32L1.36 4.32L1.36 4.32Q1.13 3.96 1.13 3.48L1.13 3.48L1.13 3.48Q1.13 3.01 1.31 2.64L1.31 2.64L1.31 2.64Q1.49 2.28 1.80 2.01L1.80 2.01L1.80 2.01Q2.11 1.74 2.53 1.56L2.53 1.56L2.53 1.56Q2.95 1.38 3.42 1.27L3.42 1.27L3.42 1.27Q3.90 1.17 4.41 1.12L4.41 1.12L4.41 1.12Q4.92 1.07 5.42 1.07L5.42 1.07L5.42 1.07Q5.97 1.07 6.46 1.12L6.46 1.12L6.46 1.12Q6.95 1.17 7.40 1.25L7.40 1.25L7.40 1.25Q7.85 1.33 8.29 1.43L8.29 1.43L8.29 1.43Q8.72 1.53 9.17 1.65L9.17 1.65ZM23.87 5.95L23.87 5.95L23.87 5.95Q23.87 7.21 23.41 8.13L23.41 8.13L23.41 8.13Q22.96 9.05 22.16 9.65L22.16 9.65L22.16 9.65Q21.36 10.25 20.27 10.53L20.27 10.53L20.27 10.53Q19.18 10.82 17.92 10.82L17.92 10.82L17.92 10.82Q16.66 10.82 15.57 10.53L15.57 10.53L15.57 10.53Q14.47 10.25 13.67 9.65L13.67 9.65L13.67 9.65Q12.86 9.05 12.40 8.13L12.40 8.13L12.40 8.13Q11.94 7.21 11.94 5.95L11.94 5.95L11.94 5.95Q11.94 5.11 12.15 4.42L12.15 4.42L12.15 4.42Q12.37 3.73 12.75 3.19L12.75 3.19L12.75 3.19Q13.13 2.65 13.68 2.25L13.68 2.25L13.68 2.25Q14.22 1.85 14.89 1.59L14.89 1.59L14.89 1.59Q15.55 1.33 16.32 1.20L16.32 1.20L16.32 1.20Q17.08 1.07 17.92 1.07L17.92 1.07L17.92 1.07Q19.18 1.07 20.27 1.36L20.27 1.36L20.27 1.36Q21.36 1.65 22.16 2.25L22.16 2.25L22.16 2.25Q22.96 2.84 23.41 3.76L23.41 3.76L23.41 3.76Q23.87 4.68 23.87 5.95ZM22.99 5.95L22.99 5.95L22.99 5.95Q22.99 4.95 22.66 4.18L22.66 4.18L22.66 4.18Q22.34 3.42 21.70 2.90L21.70 2.90L21.70 2.90Q21.07 2.37 20.12 2.10L20.12 2.10L20.12 2.10Q19.17 1.83 17.92 1.83L17.92 1.83L17.92 1.83Q16.67 1.83 15.72 2.11L15.72 2.11L15.72 2.11Q14.77 2.38 14.12 2.90L14.12 2.90L14.12 2.90Q13.48 3.42 13.15 4.19L13.15 4.19L13.15 4.19Q12.82 4.96 12.82 5.95L12.82 5.95L12.82 5.95Q12.82 6.95 13.15 7.71L13.15 7.71L13.15 7.71Q13.48 8.48 14.12 9.00L14.12 9.00L14.12 9.00Q14.77 9.52 15.72 9.79L15.72 9.79L15.72 9.79Q16.67 10.06 17.92 10.06L17.92 10.06L17.92 10.06Q19.17 10.06 20.12 9.79L20.12 9.79L20.12 9.79Q21.07 9.52 21.70 9.00L21.70 9.00L21.70 9.00Q22.34 8.48 22.66 7.71L22.66 7.71L22.66 7.71Q22.99 6.95 22.99 5.95ZM35.53 4.13L35.53 4.13L35.53 4.13Q35.53 4.83 35.30 5.37L35.30 5.37L35.30 5.37Q35.08 5.91 34.58 6.28L34.58 6.28L34.58 6.28Q34.09 6.65 33.31 6.84L33.31 6.84L33.31 6.84Q32.54 7.03 31.45 7.03L31.45 7.03L27.23 7.03L27.23 10.64L26.37 10.64L26.37 1.24L31.45 1.24L31.45 1.24Q32.54 1.24 33.31 1.43L33.31 1.43L33.31 1.43Q34.09 1.62 34.58 1.98L34.58 1.98L34.58 1.98Q35.08 2.34 35.30 2.88L35.30 2.88L35.30 2.88Q35.53 3.42 35.53 4.13ZM34.65 4.13L34.65 4.13L34.65 4.13Q34.65 3.46 34.43 3.05L34.43 3.05L34.43 3.05Q34.21 2.64 33.75 2.42L33.75 2.42L33.75 2.42Q33.28 2.19 32.58 2.12L32.58 2.12L32.58 2.12Q31.87 2.04 30.90 2.04L30.90 2.04L27.23 2.04L27.23 6.23L30.90 6.23L30.90 6.23Q31.27 6.23 31.70 6.23L31.70 6.23L31.70 6.23Q32.13 6.23 32.55 6.19L32.55 6.19L32.55 6.19Q32.96 6.15 33.34 6.03L33.34 6.03L33.34 6.03Q33.72 5.92 34.01 5.69L34.01 5.69L34.01 5.69Q34.30 5.46 34.48 5.08L34.48 5.08L34.48 5.08Q34.65 4.70 34.65 4.13ZM47.30 9.15L47.30 10.14L47.30 10.14Q46.73 10.32 46.24 10.45L46.24 10.45L46.24 10.45Q45.75 10.58 45.27 10.65L45.27 10.65L45.27 10.65Q44.79 10.73 44.29 10.77L44.29 10.77L44.29 10.77Q43.80 10.81 43.20 10.81L43.20 10.81L43.20 10.81Q41.82 10.81 40.71 10.47L40.71 10.47L40.71 10.47Q39.59 10.14 38.81 9.51L38.81 9.51L38.81 9.51Q38.03 8.89 37.60 8.00L37.60 8.00L37.60 8.00Q37.18 7.11 37.18 6.00L37.18 6.00L37.18 6.00Q37.18 4.93 37.59 4.03L37.59 4.03L37.59 4.03Q37.99 3.14 38.73 2.50L38.73 2.50L38.73 2.50Q39.46 1.85 40.48 1.50L40.48 1.50L40.48 1.50Q41.49 1.14 42.72 1.14L42.72 1.14L42.72 1.14Q44.00 1.14 45.00 1.48L45.00 1.48L45.00 1.48Q46.00 1.83 46.68 2.46L46.68 2.46L46.68 2.46Q47.37 3.10 47.72 4.00L47.72 4.00L47.72 4.00Q48.08 4.91 48.08 6.04L48.08 6.04L48.08 6.25L38.06 6.25L38.06 6.25Q38.14 7.13 38.50 7.83L38.50 7.83L38.50 7.83Q38.86 8.54 39.53 9.03L39.53 9.03L39.53 9.03Q40.20 9.52 41.17 9.79L41.17 9.79L41.17 9.79Q42.14 10.05 43.44 10.05L43.44 10.05L43.44 10.05Q44.00 10.05 44.56 9.97L44.56 9.97L44.56 9.97Q45.13 9.90 45.65 9.77L45.65 9.77L45.65 9.77Q46.17 9.65 46.60 9.48L46.60 9.48L46.60 9.48Q47.03 9.32 47.30 9.15L47.30 9.15ZM38.06 5.51L47.24 5.51L47.24 5.51Q47.19 4.79 46.92 4.14L46.92 4.14L46.92 4.14Q46.64 3.49 46.10 2.99L46.10 2.99L46.10 2.99Q45.55 2.49 44.72 2.19L44.72 2.19L44.72 2.19Q43.88 1.90 42.71 1.90L42.71 1.90L42.71 1.90Q41.61 1.90 40.78 2.19L40.78 2.19L40.78 2.19Q39.96 2.49 39.38 2.98L39.38 2.98L39.38 2.98Q38.81 3.48 38.48 4.13L38.48 4.13L38.48 4.13Q38.15 4.79 38.06 5.51L38.06 5.51ZM56.71 1.24L56.71 5.67L63.70 1.24L64.89 1.24L58.00 5.75L65.31 10.64L63.85 10.64L56.71 5.85L56.71 10.64L55.84 10.64L55.84 1.24L56.71 1.24ZM75.90 9.15L75.90 10.14L75.90 10.14Q75.33 10.32 74.83 10.45L74.83 10.45L74.83 10.45Q74.34 10.58 73.86 10.65L73.86 10.65L73.86 10.65Q73.38 10.73 72.89 10.77L72.89 10.77L72.89 10.77Q72.39 10.81 71.80 10.81L71.80 10.81L71.80 10.81Q70.42 10.81 69.30 10.47L69.30 10.47L69.30 10.47Q68.19 10.14 67.41 9.51L67.41 9.51L67.41 9.51Q66.62 8.89 66.20 8.00L66.20 8.00L66.20 8.00Q65.78 7.11 65.78 6.00L65.78 6.00L65.78 6.00Q65.78 4.93 66.18 4.03L66.18 4.03L66.18 4.03Q66.59 3.14 67.32 2.50L67.32 2.50L67.32 2.50Q68.05 1.85 69.07 1.50L69.07 1.50L69.07 1.50Q70.09 1.14 71.32 1.14L71.32 1.14L71.32 1.14Q72.60 1.14 73.60 1.48L73.60 1.48L73.60 1.48Q74.59 1.83 75.28 2.46L75.28 2.46L75.28 2.46Q75.96 3.10 76.32 4.00L76.32 4.00L76.32 4.00Q76.67 4.91 76.67 6.04L76.67 6.04L76.67 6.25L66.66 6.25L66.66 6.25Q66.73 7.13 67.09 7.83L67.09 7.83L67.09 7.83Q67.46 8.54 68.12 9.03L68.12 9.03L68.12 9.03Q68.79 9.52 69.76 9.79L69.76 9.79L69.76 9.79Q70.74 10.05 72.04 10.05L72.04 10.05L72.04 10.05Q72.59 10.05 73.16 9.97L73.16 9.97L73.16 9.97Q73.73 9.90 74.25 9.77L74.25 9.77L74.25 9.77Q74.76 9.65 75.20 9.48L75.20 9.48L75.20 9.48Q75.63 9.32 75.90 9.15L75.90 9.15ZM66.66 5.51L75.83 5.51L75.83 5.51Q75.78 4.79 75.51 4.14L75.51 4.14L75.51 4.14Q75.24 3.49 74.69 2.99L74.69 2.99L74.69 2.99Q74.15 2.49 73.31 2.19L73.31 2.19L73.31 2.19Q72.47 1.90 71.31 1.90L71.31 1.90L71.31 1.90Q70.21 1.90 69.38 2.19L69.38 2.19L69.38 2.19Q68.55 2.49 67.98 2.98L67.98 2.98L67.98 2.98Q67.40 3.48 67.07 4.13L67.07 4.13L67.07 4.13Q66.75 4.79 66.66 5.51L66.66 5.51ZM86.97 2.02L82.70 2.02L82.70 10.64L81.85 10.64L81.85 2.02L77.58 2.02L77.58 1.24L86.97 1.24L86.97 2.02ZM89.67 10.64L88.82 10.64L88.82 1.24L89.67 1.24L89.67 10.64ZM102.53 10.64L101.65 10.64L101.65 10.64Q101.58 9.87 101.27 9.25L101.27 9.25L101.27 9.25Q100.97 8.63 100.48 8.16L100.48 8.16L100.48 8.16Q100.00 7.68 99.38 7.33L99.38 7.33L99.38 7.33Q98.76 6.99 98.06 6.76L98.06 6.76L98.06 6.76Q97.36 6.54 96.62 6.43L96.62 6.43L96.62 6.43Q95.87 6.32 95.15 6.32L95.15 6.32L93.69 6.32L93.69 10.64L92.84 10.64L92.84 1.24L93.69 1.24L93.69 5.57L94.92 5.57L94.92 5.57Q95.65 5.57 96.37 5.44L96.37 5.44L96.37 5.44Q97.10 5.30 97.76 5.05L97.76 5.05L97.76 5.05Q98.42 4.79 98.99 4.42L98.99 4.42L98.99 4.42Q99.56 4.05 100.00 3.56L100.00 3.56L100.00 3.56Q100.43 3.08 100.71 2.50L100.71 2.50L100.71 2.50Q100.99 1.92 101.06 1.24L101.06 1.24L101.94 1.24L101.94 1.24Q101.88 1.99 101.61 2.59L101.61 2.59L101.61 2.59Q101.35 3.20 100.97 3.68L100.97 3.68L100.97 3.68Q100.58 4.17 100.11 4.54L100.11 4.54L100.11 4.54Q99.64 4.90 99.16 5.16L99.16 5.16L99.16 5.16Q98.67 5.43 98.21 5.60L98.21 5.60L98.21 5.60Q97.74 5.78 97.36 5.87L97.36 5.87L97.36 5.87Q97.84 5.94 98.39 6.09L98.39 6.09L98.39 6.09Q98.94 6.25 99.49 6.50L99.49 6.50L99.49 6.50Q100.04 6.76 100.56 7.13L100.56 7.13L100.56 7.13Q101.08 7.51 101.49 8.01L101.49 8.01L101.49 8.01Q101.90 8.52 102.18 9.17L102.18 9.17L102.18 9.17Q102.46 9.82 102.53 10.64L102.53 10.64ZM104.94 1.24L105.81 1.24L105.81 7.44L105.81 7.44Q105.80 8.23 106.00 8.74L106.00 8.74L106.00 8.74Q106.21 9.24 106.60 9.53L106.60 9.53L106.60 9.53Q106.98 9.82 107.53 9.94L107.53 9.94L107.53 9.94Q108.08 10.05 108.77 10.05L108.77 10.05L108.77 10.05Q109.57 10.05 110.34 9.85L110.34 9.85L110.34 9.85Q111.10 9.66 111.78 9.36L111.78 9.36L111.78 9.36Q112.46 9.06 113.02 8.70L113.02 8.70L113.02 8.70Q113.59 8.34 113.98 8.00L113.98 8.00L113.98 1.24L114.85 1.24L114.85 10.64L113.98 10.64L113.98 8.98L113.98 8.98Q113.50 9.29 112.94 9.62L112.94 9.62L112.94 9.62Q112.37 9.95 111.71 10.23L111.71 10.23L111.71 10.23Q111.05 10.51 110.30 10.68L110.30 10.68L110.30 10.68Q109.55 10.86 108.71 10.86L108.71 10.86L108.71 10.86Q107.75 10.86 107.05 10.62L107.05 10.62L107.05 10.62Q106.34 10.38 105.87 9.95L105.87 9.95L105.87 9.95Q105.40 9.52 105.17 8.93L105.17 8.93L105.17 8.93Q104.94 8.34 104.94 7.63L104.94 7.63L104.94 1.24Z"></path></g><!----><!----></svg>